<?xml version="1.0" standalone="no"?>
<!DOCTYPE svg PUBLIC "-//W3C//DTD SVG 20010904//EN"
 "http://www.w3.org/TR/2001/REC-SVG-20010904/DTD/svg10.dtd">
<svg version="1.0" xmlns="http://www.w3.org/2000/svg"
 width="113.000000pt" height="113.000000pt" viewBox="0 0 113.000000 113.000000"
 preserveAspectRatio="xMidYMid meet">
<metadata>
Created by potrace 1.11, written by Peter Selinger 2001-2013
</metadata>
<g transform="translate(0.000000,113.000000) scale(0.100000,-0.100000)"
fill="#000000" stroke="none">
<path d="M17 1124 c-4 -4 -7 -259 -7 -566 l0 -558 183 2 182 3 3 253 2 253 79
-93 c44 -51 140 -165 213 -253 l134 -160 152 -3 152 -3 0 565 0 565 -180 0
-180 0 0 -249 c0 -138 -3 -250 -7 -249 -5 0 -29 26 -55 57 -63 76 -161 194
-269 323 -49 59 -95 109 -102 112 -21 8 -292 9 -300 1z"/>
</g>
</svg>
